<svg width="64" height="64" viewBox="0 0 64 64" fill="none" xmlns="http://www.w3.org/2000/svg">
<path fill-rule="evenodd" clip-rule="evenodd" d="M28.1881 4.67999L28.1664 4.68869L28.1193 4.70712C28.0801 4.72259 28.0424 4.73741 28.0048 4.74998C27.8433 3.59422 27.7603 2.65736 28.3193 1.72926C28.9045 0.75737 29.887 0.293317 30.8478 0C30.9875 1.1076 31.1142 2.14953 30.5508 3.08201C30.0396 3.93766 29.0985 4.31498 28.1881 4.67999ZM28.0135 12.1311C27.6991 11.0366 28.0266 9.99907 28.4677 9.09285L28.4823 9.10345C29.3765 9.7518 30.2205 10.3637 30.5158 11.4087C30.7929 12.3679 30.4305 13.3141 30.0796 14.2303L30.0704 14.2544C30.0529 14.3069 30.0311 14.3638 30.0093 14.4163C29.0572 13.7465 28.3148 13.173 28.0135 12.1311ZM32.0093 6.82512C32.5596 6.82512 33.0138 6.3742 33.0138 5.82259C33.0138 5.27098 32.564 4.81569 32.0093 4.81569C31.4591 4.81569 31.0093 5.26661 31.0093 5.82259C31.0093 6.3742 31.4591 6.82512 32.0093 6.82512ZM33.7149 14.5244C33.5203 13.5625 33.32 12.5721 33.7476 11.6758C34.2148 10.6953 35.1535 10.2269 36.1446 9.73224L36.1451 9.73201C36.4333 10.6951 36.5862 11.7765 36.097 12.8009C35.6341 13.7815 34.8044 14.2237 33.7563 14.7271C33.7497 14.6987 33.7443 14.6702 33.7388 14.6418C33.7334 14.6133 33.7279 14.5849 33.7214 14.5564L33.7149 14.5244ZM22.415 9.02272C23.2447 8.32664 23.4631 7.41167 23.6858 6.26467C23.6574 6.26685 23.6279 6.26795 23.5985 6.26904L23.5984 6.26904C23.569 6.27014 23.5395 6.27123 23.5111 6.27342L23.4813 6.27501C22.5036 6.32698 21.4946 6.38063 20.738 7.02204C19.9083 7.72249 19.6899 8.75129 19.4672 9.84138C19.5676 9.84576 19.6637 9.84576 19.7598 9.84576C20.8996 9.85014 21.7468 9.58746 22.415 9.02272ZM36.2957 4.7215L36.2954 4.72138C36.2682 4.71047 36.241 4.69956 36.2149 4.68865L36.193 4.67987C35.2827 4.31489 34.3416 3.93759 33.8261 3.08635C33.2671 2.15387 33.3937 1.10756 33.5291 0.00433673C34.4899 0.297653 35.4725 0.761707 36.0577 1.73359C36.621 2.6617 36.5337 3.59856 36.3765 4.75432C36.3503 4.74338 36.323 4.73244 36.2957 4.7215ZM14.4712 16.4783C14.4712 17.0299 14.921 17.4808 15.4712 17.4808C16.0215 17.4808 16.4713 17.0299 16.4713 16.4783C16.4713 15.9267 16.0215 15.4758 15.4712 15.4758C14.921 15.4758 14.4712 15.9223 14.4712 16.4783ZM23.5765 2.42536C23.5765 2.97697 23.1267 3.42789 22.5764 3.42789C22.0262 3.42789 21.5764 2.97697 21.5764 2.42536C21.5764 1.87375 22.0262 1.42283 22.5764 1.42283C23.1267 1.42283 23.5765 1.87375 23.5765 2.42536ZM14.5368 8.70754C15.2923 9.49118 16.3316 9.63565 17.4321 9.7845C17.3972 8.77759 17.2007 7.70939 16.4102 6.89073C15.6547 6.11147 14.7333 5.95824 13.576 5.81377C13.5798 5.86351 13.587 5.91324 13.5945 5.96589L13.5978 5.98889C13.7158 6.97391 13.838 7.98957 14.5368 8.70754ZM23.1311 20.055C22.5765 20.055 22.1266 19.604 22.1266 19.0524C22.1266 18.5008 22.5765 18.0455 23.1311 18.0455C23.6813 18.0455 24.1311 18.5008 24.1311 19.0524C24.1311 19.604 23.6813 20.055 23.1311 20.055ZM21.6289 13.8384C20.8865 14.6264 20.7773 15.5633 20.6856 16.7278C20.7139 16.7234 20.7423 16.7179 20.7707 16.7125C20.7991 16.707 20.8275 16.7015 20.8559 16.6971L20.8634 16.6959C21.8349 16.5299 22.8403 16.3582 23.5242 15.6289C24.2675 14.8402 24.3618 13.8 24.4617 12.6981L24.4631 12.6826C23.463 12.7614 22.4062 13.011 21.6289 13.8384ZM27.0615 8.0422C27.0615 8.59381 26.6116 9.04473 26.0614 9.04473C25.5111 9.04473 25.0613 8.59381 25.0613 8.0422C25.0613 7.49059 25.5111 7.03966 26.0614 7.03966C26.6116 7.03966 27.0615 7.49059 27.0615 8.0422ZM52.7225 14.6833C53.1985 13.6764 53.644 12.7264 53.4038 11.667C53.1824 10.692 52.4084 10.0373 51.657 9.40162L51.6439 9.39048C51.607 9.35723 51.5702 9.3271 51.5307 9.29483L51.5085 9.27665C50.9975 10.323 50.622 11.1854 50.8622 12.2448C51.1111 13.3568 51.9015 14.1054 52.7225 14.6833ZM57.2511 18.2163H57.1507C56.0633 18.1725 55.2641 17.4895 54.4213 16.7672C55.1593 16.1499 56.0458 15.6027 57.1201 15.6027H57.2555C58.3385 15.6464 59.0722 16.2331 59.9456 17.0036C59.9216 17.0211 59.8977 17.0375 59.8737 17.0538L59.8736 17.0539C59.8495 17.0704 59.8255 17.0868 59.8015 17.1043C59.0154 17.6515 58.2032 18.2163 57.2511 18.2163ZM37.9225 9.04473C38.4727 9.04473 38.9269 8.59381 38.9269 8.0422C38.9269 7.49059 38.4771 7.03966 37.9225 7.03966C37.3722 7.03966 36.9224 7.49059 36.9224 8.0422C36.9224 8.59381 37.3722 9.04473 37.9225 9.04473ZM50.3976 5.89776L50.3975 5.89796C50.3941 5.9287 50.3907 5.9588 50.3861 5.98889C50.2681 6.97391 50.1459 7.98957 49.4471 8.70754C48.6916 9.49118 47.6523 9.63565 46.5518 9.7845C46.5867 8.77759 46.7832 7.70939 47.5737 6.89073C48.3292 6.11147 49.2506 5.95824 50.4079 5.81377C50.4038 5.84258 50.4006 5.87043 50.3976 5.89776ZM59.7404 20.716C59.7404 20.1644 59.2906 19.7135 58.7403 19.7135C58.1901 19.7135 57.7403 20.1644 57.7403 20.716C57.7403 21.2677 58.1901 21.723 58.7403 21.723C59.2906 21.723 59.7404 21.272 59.7404 20.716ZM60.0155 26.7663C59.7579 27.8214 58.9368 28.4737 58.0634 29.161C57.5831 28.2723 57.2118 27.2522 57.4826 26.149C57.7403 25.094 58.4565 24.4898 59.3823 23.7806L59.3971 23.8166L59.3971 23.8167C59.4142 23.8586 59.4319 23.9019 59.4522 23.9426L59.4553 23.9499C59.8474 24.8582 60.2507 25.7926 60.0155 26.7663ZM39.8527 19.0524C39.8527 19.604 40.3025 20.055 40.8571 20.055C41.4073 20.055 41.8572 19.604 41.8572 19.0524C41.8572 18.5008 41.4073 18.0455 40.8571 18.0455C40.3025 18.0455 39.8527 18.5008 39.8527 19.0524ZM43.2983 16.7278C43.2416 16.7147 43.1848 16.7059 43.128 16.6971L43.1276 16.6971C42.1495 16.5307 41.1453 16.36 40.4553 15.6289C39.7121 14.8403 39.6177 13.8 39.5178 12.6982L39.5164 12.6826C40.5209 12.7658 41.5777 13.011 42.355 13.8384C43.0974 14.6308 43.211 15.5633 43.2983 16.7278ZM41.4074 3.42789C41.9598 3.42789 42.4075 2.97904 42.4075 2.42536C42.4075 1.87168 41.9598 1.42283 41.4074 1.42283C40.8551 1.42283 40.4074 1.87168 40.4074 2.42536C40.4074 2.97904 40.8551 3.42789 41.4074 3.42789ZM47.5126 16.474C47.5126 15.9223 47.9624 15.4714 48.5127 15.4714C49.0629 15.4714 49.5127 15.9223 49.5127 16.474C49.5127 17.0256 49.0629 17.4765 48.5127 17.4765C47.9624 17.4765 47.5126 17.0256 47.5126 16.474ZM41.569 9.0228C42.2371 9.58755 43.08 9.85022 44.2285 9.85022C44.3246 9.85022 44.4163 9.85022 44.5211 9.84584C44.2984 8.75575 44.08 7.72696 43.2503 7.0265C42.4938 6.38509 41.4847 6.33145 40.507 6.27947L40.4772 6.27788C40.4472 6.27574 40.4183 6.27464 40.3899 6.27357C40.3604 6.27245 40.3315 6.27136 40.3025 6.26913C40.5252 7.41175 40.7436 8.32672 41.569 9.0228ZM28.2625 23.4894L28.2624 23.4895L28.2624 23.4896C28.2526 23.5169 28.2428 23.5442 28.2319 23.5704C27.2799 22.9006 26.5375 22.3314 26.2318 21.2851C25.9174 20.195 26.2493 19.1575 26.686 18.2513C27.5856 18.8992 28.4372 19.5165 28.7385 20.5628C29.018 21.5303 28.6512 22.4847 28.2931 23.4084C28.2822 23.4345 28.2724 23.4617 28.2626 23.489L28.2626 23.4891L28.2626 23.4892L28.2625 23.4893L28.2625 23.4894ZM51.4647 21.1319C50.9101 21.1319 50.4603 21.5828 50.4603 22.1388C50.4603 22.6904 50.9101 23.1413 51.4647 23.1413C52.015 23.1413 52.4648 22.6904 52.4648 22.1388C52.4692 21.5828 52.0193 21.1319 51.4647 21.1319ZM46.233 28.9639C45.8443 28.0533 45.4469 27.1121 45.6915 26.1358C45.9622 25.0808 46.7876 24.4372 47.6741 23.7587C48.1414 24.6517 48.5039 25.6762 48.2244 26.7794C47.958 27.8301 47.2331 28.4255 46.3029 29.1259C46.2826 29.0853 46.2649 29.042 46.2478 29.0001L46.2478 29L46.233 28.9639ZM35.2455 20.5628C34.966 21.5259 35.3328 22.4847 35.6909 23.4084C35.7127 23.4653 35.7346 23.5178 35.7564 23.5704C36.7084 22.9006 37.4508 22.3271 37.7522 21.2851C38.0666 20.1907 37.7391 19.1575 37.298 18.2513L37.2928 18.255C36.3908 18.9059 35.5419 19.5185 35.2455 20.5628ZM12.4755 9.28112C12.9864 10.3274 13.362 11.1899 13.1218 12.2493C12.8729 13.3569 12.0868 14.1055 11.2614 14.6834C10.7854 13.6765 10.34 12.7265 10.5802 11.6671C10.8016 10.6921 11.5755 10.0374 12.3269 9.4017L12.3401 9.39056C12.3712 9.36789 12.4005 9.34339 12.4291 9.31942C12.4447 9.30637 12.4601 9.29347 12.4755 9.28112ZM17.6854 29.1259L17.7002 29.0899L17.7002 29.0899C17.7173 29.048 17.735 29.0046 17.7553 28.9639L17.7589 28.9553C18.1421 28.043 18.5362 27.1047 18.2924 26.1358C18.026 25.0808 17.1963 24.4372 16.3185 23.7587C15.8512 24.6474 15.4888 25.6762 15.7683 26.7794C16.0303 27.8257 16.7552 28.4255 17.6854 29.1259ZM46.8618 33.5782H46.8924C48.1938 33.5782 49.0847 33.8583 49.7878 34.4844C50.5957 35.2067 50.7878 36.1261 50.9756 37.2775L50.8878 37.2709L50.8009 37.2643C49.814 37.1855 48.7964 37.1023 48.0497 36.4325C47.2418 35.7102 47.054 34.6726 46.8618 33.5782ZM40.7479 28.5655C40.7479 29.1171 41.1977 29.5681 41.7524 29.5681C42.3026 29.5681 42.7524 29.1171 42.7524 28.5655C42.7524 28.0139 42.3026 27.563 41.7524 27.563C41.1977 27.563 40.7479 28.0139 40.7479 28.5655ZM13.5191 22.1388C13.5191 22.6904 13.0693 23.1413 12.5191 23.1413C11.9688 23.1413 11.5147 22.6904 11.5147 22.1388C11.5147 21.5828 11.9688 21.1319 12.5191 21.1319C13.0693 21.1319 13.5191 21.5872 13.5191 22.1388ZM61.8191 32.3831C61.2339 31.9803 60.5439 31.7789 59.7054 31.7789C59.4303 31.7789 59.1377 31.8008 58.8058 31.8402L58.8099 31.8535C59.1359 32.9124 59.4428 33.9092 60.3343 34.5282C60.9806 34.9748 61.7274 35.0405 62.3781 35.0405C62.5758 35.0405 62.7761 35.033 62.975 35.0255L63.0947 35.0211L63.1685 35.0186C63.2215 35.0186 63.2745 35.0148 63.331 35.0107L63.3432 35.0098C63.0113 33.8934 62.71 33.0004 61.8191 32.3831ZM55.266 33.0337C55.8173 33.0681 56.2364 33.544 56.2021 34.0966C56.1677 34.6493 55.693 35.0694 55.1418 35.035C54.5905 35.0006 54.1714 34.5247 54.2057 33.9721C54.2401 33.4194 54.7148 32.9993 55.266 33.0337ZM53.2901 28.3598C53.2901 28.9114 53.74 29.3623 54.2902 29.3623C54.8405 29.3623 55.2903 28.9114 55.2903 28.3598C55.2903 27.8082 54.8405 27.3573 54.2902 27.3573C53.74 27.3529 53.2901 27.8038 53.2901 28.3598ZM22.2359 27.563C22.7861 27.563 23.2359 28.0139 23.2359 28.5655C23.2359 29.1215 22.7861 29.5724 22.2359 29.5681C21.6856 29.5681 21.2358 29.1171 21.2358 28.5655C21.2358 28.0139 21.6856 27.563 22.2359 27.563ZM5.92042 29.1609C6.39643 28.2722 6.76763 27.2522 6.50124 26.1446C6.24358 25.0895 5.52738 24.4897 4.60156 23.7761L4.58677 23.8122C4.56967 23.8541 4.55199 23.8974 4.53168 23.9381L4.52853 23.9454C4.13648 24.8537 3.73313 25.7882 3.96833 26.7618C4.22584 27.8207 5.05043 28.4728 5.91894 29.1597L5.92042 29.1609ZM4.27843 31.7833C4.55356 31.7833 4.85052 31.8052 5.17805 31.8446L5.17392 31.858C4.84794 32.9168 4.54108 33.9135 3.65394 34.5326C3.00761 34.9835 2.25647 35.0448 1.61015 35.0448C1.40914 35.0448 1.203 35.0371 1.00158 35.0295L1.00069 35.0295L0.999897 35.0294C0.939314 35.0272 0.879159 35.0249 0.819703 35.0229C0.789721 35.0207 0.760789 35.0197 0.732393 35.0186H0.732315C0.702832 35.0175 0.673926 35.0164 0.64502 35.0141C0.972551 33.8934 1.27825 33.0047 2.16476 32.3874C2.74995 31.9803 3.43995 31.7833 4.27843 31.7833ZM4.24349 20.716C4.24349 21.2677 4.6933 21.723 5.24355 21.723C5.7938 21.723 6.24361 21.272 6.24361 20.716C6.24361 20.1644 5.7938 19.7135 5.24355 19.7135C4.6933 19.7135 4.24349 20.1644 4.24349 20.716ZM6.8375 18.2163H6.73269C5.78066 18.2163 4.96839 17.6515 4.19104 17.1043C4.16706 17.0868 4.14308 17.0704 4.1191 17.054L4.11899 17.0539L4.11887 17.0539C4.09489 17.0375 4.07091 17.0211 4.04693 17.0036C4.92035 16.2331 5.65402 15.6464 6.73269 15.6027H6.86807C7.94237 15.6027 8.82452 16.1499 9.56692 16.7672L9.55191 16.78C8.71031 17.4976 7.91848 18.1727 6.8375 18.2163ZM9.78532 34.0379C9.78532 33.4863 9.33551 33.031 8.78526 33.031C8.235 33.031 7.78519 33.4819 7.78519 34.0379C7.78519 34.5895 8.235 35.0404 8.78526 35.0404C9.33551 35.0404 9.78532 34.5895 9.78532 34.0379ZM17.122 33.5826C16.9299 34.6771 16.7421 35.7103 15.9342 36.437C15.1911 37.0992 14.1798 37.1848 13.2016 37.2676L13.1873 37.2688C13.1262 37.2732 13.0694 37.2776 13.0126 37.2819C13.2004 36.1349 13.3926 35.2112 14.2005 34.4889C14.8992 33.8628 15.7901 33.5826 17.0915 33.5826H17.122ZM10.6937 28.3598C10.6937 27.8082 10.2439 27.3573 9.69367 27.3573C9.14342 27.3573 8.69361 27.8082 8.69361 28.3598C8.69361 28.9114 9.14342 29.3623 9.69367 29.3623C10.2439 29.3623 10.6937 28.9114 10.6937 28.3598ZM47.6769 50.6562L47.6729 50.6509C47.6686 50.6451 47.6633 50.6382 47.6567 50.6299C47.6552 50.6285 47.6543 50.6265 47.6533 50.6245L47.653 50.6241L47.6737 50.6509C47.68 50.6591 47.685 50.6659 47.6873 50.6693C47.6851 50.6671 47.6818 50.6628 47.6769 50.6562ZM47.653 50.6241C47.6518 50.6216 47.6505 50.6193 47.6482 50.6179L47.653 50.6241ZM47.6482 50.6179C47.6475 50.6175 47.6466 50.6172 47.6456 50.617C47.645 50.6169 47.6443 50.6168 47.6436 50.6168C47.6386 50.6069 47.6337 50.6012 47.6303 50.5973C47.6291 50.5959 47.6281 50.5947 47.6274 50.5937C47.6266 50.5925 47.6261 50.5915 47.6261 50.5905C47.6279 50.5924 47.6373 50.604 47.6482 50.6179ZM59.8321 29.6644C59.2688 29.9402 58.6923 30.1679 58.0896 30.3386C57.4913 30.5137 56.8843 30.6494 56.2686 30.7458C55.6528 30.8377 55.037 30.8946 54.4126 30.9209C53.7924 30.9428 53.1636 30.934 52.5391 30.9121C51.3987 30.8691 50.2541 30.7629 49.097 30.6555L49.0969 30.6554L49.0323 30.6494C50.4734 29.1872 51.7879 27.6156 52.9583 25.9476C53.692 24.9013 54.3907 23.8025 54.8929 22.6161C55.1462 22.0251 55.3515 21.4122 55.4825 20.7817C55.6135 20.1557 55.6659 19.5122 55.6222 18.8818C55.6004 19.5122 55.4825 20.1382 55.2947 20.7336C55.1069 21.329 54.8493 21.8981 54.5436 22.441C53.9365 23.531 53.1679 24.5161 52.3426 25.4617C50.7311 27.3223 48.9319 29.0034 46.9929 30.4743C46.2854 30.4218 45.5736 30.3868 44.853 30.378C44.1892 30.3693 43.5079 30.3868 42.8092 30.4612C42.1148 30.54 41.403 30.6801 40.6955 30.9252C39.9881 31.1704 39.3199 31.5119 38.7042 31.9234C38.3504 32.1554 38.0142 32.4137 37.6954 32.6895C37.7827 31.6651 37.8788 30.6276 37.9836 29.5812C38.1714 29.069 38.3504 28.5875 38.5513 28.176C38.6867 27.8958 38.8308 27.6462 38.9837 27.4317C39.0666 27.3223 39.1496 27.2216 39.2326 27.134C39.3199 27.0421 39.4073 26.9589 39.5121 26.8757C39.7173 26.7137 39.975 26.5605 40.2676 26.4117C40.5383 26.276 40.8353 26.1402 41.1497 26.0002C41.158 25.9966 41.166 25.9933 41.1739 25.9901L41.1739 25.9901C41.1949 25.9816 41.2148 25.9735 41.2371 25.9608C41.4991 25.8469 41.7567 25.7287 42.0144 25.6061C43.1455 25.0677 44.2416 24.4723 45.2985 23.82C46.5998 23.0232 47.8401 22.1433 49.0192 21.1845C50.1896 20.2301 51.3207 19.197 52.3033 18.0281C53.2815 16.8636 54.1243 15.559 54.6571 14.1449C55.1943 12.7309 55.4388 11.203 55.2641 9.73202C55.2903 11.2161 54.8886 12.6652 54.2379 13.961C53.5915 15.2613 52.6745 16.4039 51.6351 17.402C50.5957 18.4046 49.4253 19.2714 48.2069 20.0725C46.9885 20.8693 45.7221 21.5829 44.4207 22.2045C44.1717 22.3271 43.9272 22.441 43.6783 22.5504C43.8529 22.1914 44.0233 21.8324 44.1848 21.4647C44.9403 19.7748 45.46 17.9493 45.6871 16.1325C45.7526 15.6772 45.7919 15.2219 45.8269 14.7666L45.8662 14.0836C45.874 13.947 45.8772 13.8105 45.8803 13.6739C45.8824 13.5828 45.8845 13.4917 45.888 13.4007C45.9055 12.4944 45.888 11.5882 45.8312 10.6908C45.7308 8.89147 45.5212 7.10968 45.3072 5.33227C45.3378 7.12281 45.364 8.91336 45.281 10.6908C45.246 11.5839 45.1718 12.4638 45.0626 13.3394C45.0504 13.4269 45.0396 13.5144 45.0288 13.602C45.0125 13.7333 44.9963 13.8647 44.9753 13.9961L44.8705 14.644L44.8426 14.79L44.8426 14.7901C44.7695 15.1738 44.6971 15.5537 44.6041 15.9267C44.3988 16.776 44.1499 17.6078 43.8267 18.4002C43.5167 19.197 43.128 19.9675 42.7044 20.7161C42.1236 21.7361 41.4642 22.7168 40.7698 23.6886C40.6475 23.7324 40.5296 23.7718 40.4073 23.8112L40.3657 23.8246C40.0365 23.9303 39.6797 24.0449 39.3068 24.1877C38.9181 24.3366 38.5076 24.5161 38.0971 24.77C37.8919 24.8926 37.6866 25.0414 37.4988 25.2034C37.3067 25.3654 37.132 25.5361 36.9704 25.7112C36.6473 26.0658 36.3765 26.4423 36.145 26.8101C35.918 27.1822 35.7214 27.5499 35.5424 27.9045C35.4511 28.0875 35.3656 28.2636 35.2816 28.4363C35.2008 28.6026 35.1216 28.7658 35.0402 28.9289L34.8655 29.2923C34.8655 29.2923 33.7169 27.4098 33.6034 26.4817C33.4942 25.5799 33.3457 24.678 33.1885 23.7981L33.1556 23.6154C33.0094 22.8041 32.867 22.0143 32.8304 21.2283C32.8086 20.8124 32.8173 20.3921 32.8697 19.985C32.8828 19.8799 32.8959 19.7792 32.9178 19.6785L32.944 19.5253L32.9833 19.3764L33.0619 19.0788C33.0834 19.008 33.1092 18.9394 33.1347 18.8714L33.1348 18.8711C33.1456 18.8425 33.1563 18.814 33.1667 18.7854C33.3021 18.3914 33.503 18.0193 33.7213 17.6516C33.9571 17.297 34.2061 16.9511 34.4987 16.6272C35.0707 15.9792 35.7433 15.397 36.4507 14.8716C37.1582 14.3419 37.905 13.8516 38.6561 13.3788C37.8569 13.7728 37.0665 14.1843 36.2979 14.644C35.5293 15.1037 34.7869 15.6246 34.11 16.2463C33.7694 16.5527 33.4593 16.8986 33.1623 17.2576C32.8872 17.6341 32.6164 18.0237 32.4156 18.4571C32.3998 18.4899 32.3837 18.5223 32.3677 18.5546C32.3303 18.6299 32.2933 18.7044 32.2627 18.7811L32.1361 19.1182L32.0706 19.2889L32.0225 19.464C32.0148 19.4846 32.0086 19.5052 32.0021 19.5267L32.0021 19.5269C31.9976 19.5419 31.993 19.5573 31.9876 19.5735C31.9788 19.5341 31.9701 19.499 31.957 19.464L31.9046 19.2889L31.8435 19.1182L31.7125 18.7811C31.6855 18.7059 31.6481 18.6327 31.6104 18.5588C31.5933 18.5252 31.576 18.4914 31.5596 18.4571C31.4286 18.1682 31.2626 17.8967 31.0836 17.6384C31.3107 17.2007 31.5203 16.7541 31.7125 16.2944C32.2365 15.0249 32.5946 13.6809 32.6645 12.3193C32.6994 11.6364 32.6732 10.9578 32.5597 10.2924C32.4505 9.62695 32.2627 8.97903 31.9919 8.3705C32.1972 9.00529 32.3151 9.66197 32.3544 10.3187C32.3937 10.9753 32.35 11.632 32.2496 12.2799C32.0487 13.5758 31.5814 14.8016 30.9613 15.9442C30.7997 16.2507 30.6251 16.544 30.4416 16.8329C30.2582 16.6272 30.0617 16.4301 29.8564 16.2507C29.1839 15.629 28.4415 15.108 27.6685 14.6484C26.8999 14.1887 26.1095 13.7772 25.3103 13.3832C26.0615 13.8603 26.8039 14.3463 27.5157 14.876C28.2232 15.4057 28.8913 15.9836 29.4678 16.6315C29.6861 16.8723 29.8826 17.1306 30.0704 17.3977L30.1115 17.4576C30.156 17.5224 30.2018 17.5892 30.2451 17.6559C30.3936 17.9055 30.5333 18.155 30.6513 18.4133C30.708 18.5359 30.7561 18.6585 30.7997 18.7854C30.8133 18.8246 30.8276 18.8625 30.8417 18.9C30.8639 18.959 30.8859 19.0172 30.9045 19.0788L30.9832 19.3764L31.0225 19.5253L31.0487 19.6741C31.0705 19.7748 31.0836 19.8755 31.0967 19.985C31.1535 20.3921 31.1578 20.8124 31.136 21.2283C31.0969 22.0697 30.9408 22.9156 30.7799 23.7873L30.7779 23.7981C30.612 24.678 30.4678 25.5755 30.3587 26.4817C30.2451 27.4098 29.0966 29.2923 29.0966 29.2923L28.9219 28.9289L28.9217 28.9285C28.7602 28.596 28.5987 28.2634 28.4197 27.9045C28.245 27.5499 28.0485 27.1822 27.817 26.8101C27.5899 26.4423 27.3192 26.0658 26.996 25.7112C26.8344 25.5361 26.6554 25.3654 26.4676 25.2034C26.2754 25.0458 26.0746 24.8926 25.8693 24.77C25.4588 24.5117 25.0483 24.3322 24.6596 24.1877C24.2709 24.0389 23.9041 23.9207 23.5591 23.8112L23.4882 23.7876C23.3927 23.756 23.2954 23.7237 23.201 23.6886C22.5023 22.7168 21.8428 21.7361 21.262 20.7161C20.8428 19.9675 20.4497 19.197 20.1397 18.4002C19.8165 17.6078 19.5676 16.7716 19.3623 15.9267C19.2736 15.5709 19.2037 15.2057 19.134 14.8418L19.096 14.644L18.9911 13.9961C18.9702 13.8647 18.9539 13.7334 18.9377 13.602C18.9269 13.5145 18.916 13.4269 18.9038 13.3394C18.799 12.4638 18.7248 11.5839 18.6854 10.6908C18.6025 8.91774 18.6287 7.12719 18.6592 5.33227C18.4453 7.10968 18.2356 8.89147 18.1352 10.6908C18.0784 11.5882 18.061 12.4944 18.0784 13.4007C18.0819 13.4917 18.084 13.5828 18.0861 13.6738C18.0893 13.8104 18.0924 13.947 18.1003 14.0836L18.1396 14.7666L18.1526 14.9183L18.1526 14.9184C18.1871 15.3231 18.2216 15.7278 18.2837 16.1325C18.5108 17.9493 19.0304 19.7748 19.7903 21.4647C19.9519 21.8324 20.1222 22.1958 20.2969 22.5504C20.048 22.4366 19.8034 22.3228 19.5589 22.2045C18.2575 21.5785 16.991 20.8649 15.7726 20.0725C14.5498 19.2714 13.3838 18.4046 12.3444 17.402C11.3051 16.3995 10.3924 15.2613 9.74166 13.961C9.09097 12.6652 8.69356 11.2161 8.7154 9.73202C8.54071 11.203 8.78527 12.7309 9.32242 14.1449C9.85521 15.5633 10.6981 16.8679 11.6763 18.0281C12.6632 19.197 13.7899 20.2301 14.9647 21.1845C16.1394 22.1389 17.3841 23.0232 18.6854 23.82C19.7466 24.4723 20.8428 25.0677 21.9739 25.6061C22.2315 25.7287 22.4892 25.8469 22.7512 25.9608C22.758 25.9641 22.765 25.9675 22.7722 25.9709C22.7789 25.9741 22.7858 25.9773 22.7927 25.9805C22.7978 25.9828 22.8029 25.9852 22.8079 25.9875C22.8169 25.9917 22.8258 25.9959 22.8342 26.0002C23.153 26.1402 23.4499 26.2716 23.7163 26.4117C24.0089 26.5605 24.2666 26.7094 24.4762 26.8757C24.581 26.9589 24.6684 27.0421 24.7557 27.134C24.843 27.226 24.926 27.3223 25.0046 27.4317C25.1618 27.6462 25.3059 27.8958 25.4413 28.176C25.6422 28.5875 25.8213 29.069 26.009 29.5812L26.0291 29.7897C26.1228 30.7654 26.2157 31.7332 26.2973 32.6895C25.9785 32.4137 25.6466 32.1598 25.2885 31.9234C24.6727 31.5119 24.0002 31.1704 23.2927 30.9252C22.5896 30.6801 21.8778 30.54 21.1791 30.4612C20.4847 30.3824 19.8034 30.3649 19.1353 30.378C18.4147 30.3868 17.6985 30.4262 16.991 30.4743C15.052 29.0034 13.2572 27.3223 11.6413 25.4617C10.8203 24.5161 10.0474 23.531 9.4447 22.441C9.139 21.8981 8.88135 21.329 8.69356 20.7336C8.50141 20.1382 8.3835 19.5122 8.36603 18.8818C8.32236 19.5122 8.37476 20.1557 8.50141 20.7817C8.63242 21.4078 8.83768 22.0251 9.09097 22.6161C9.59755 23.8025 10.2919 24.9013 11.0256 25.9476C12.196 27.6156 13.5148 29.1872 14.956 30.6494C14.8025 30.6631 14.6493 30.6768 14.4964 30.6906L14.4961 30.6906C13.47 30.7829 12.4563 30.874 11.4492 30.9121C10.8203 30.934 10.1958 30.9428 9.57135 30.9209C8.95122 30.8946 8.33109 30.8377 7.71533 30.7458C7.09958 30.6538 6.49255 30.5137 5.89426 30.3386C5.29597 30.1635 4.71515 29.9359 4.1518 29.6644C3.02509 29.1259 2.00756 28.3423 1.21275 27.3485C1.89838 28.4211 2.85477 29.3361 3.95964 30.0147C4.5099 30.3561 5.09072 30.6582 5.69774 30.899C6.3004 31.1441 6.92489 31.3543 7.55812 31.5206C8.18698 31.6826 8.83331 31.814 9.484 31.9059C10.1303 31.9978 10.781 32.0547 11.4317 32.0985C12.5444 32.1696 13.6506 32.1831 14.745 32.1965H14.7453C14.9308 32.1988 15.1161 32.201 15.301 32.2036C16.5761 32.2167 17.8382 32.243 19.0654 32.3524C20.2882 32.4619 21.4542 32.6764 22.4237 33.1361C23.3932 33.5914 24.2316 34.305 24.9216 35.1805C25.402 35.7803 25.8125 36.4545 26.1619 37.1637C26.2623 37.3695 26.4851 39.2169 26.6335 40.6747C26.7383 41.7429 26.437 42.8068 25.7863 43.6648L24.4849 45.3722L23.7644 46.3222L23.7643 46.3222C23.7294 46.3529 23.6945 46.3835 23.6552 46.4097C23.6525 46.4097 23.6515 46.4114 23.65 46.4137C23.6492 46.4152 23.6481 46.4168 23.6465 46.4185C23.6401 46.4249 23.6337 46.429 23.6256 46.4341L23.6159 46.4404C23.5855 46.4615 23.5563 46.4838 23.5264 46.5068C23.5005 46.5267 23.474 46.547 23.4456 46.5673C23.2971 46.6724 23.1486 46.7775 22.9914 46.8738C22.7075 47.0533 22.4149 47.2109 22.1136 47.3422C22.0983 47.3488 22.083 47.3543 22.0677 47.3597C22.0525 47.3652 22.0372 47.3707 22.0219 47.3773C21.5939 47.5392 21.1528 47.6574 20.6987 47.7231C20.2401 47.78 19.7772 47.7844 19.3187 47.7406L19.2514 47.7344L19.1789 47.7275C18.6199 47.6443 18.0828 47.4823 17.5544 47.2634C17.3491 47.1759 17.1482 47.0796 16.943 46.9789C16.6551 46.8356 16.3701 46.6853 16.0853 46.535C15.1169 46.0241 14.1492 45.5137 13.0694 45.2803C12.1043 45.0789 11.1173 45.0657 10.1347 45.0789C9.64995 45.0833 9.139 45.1095 8.67609 45.2803C8.25685 45.4379 7.87692 45.6568 7.51882 45.9282L7.51851 45.9284C7.43127 45.994 7.34404 46.0596 7.26116 46.1252L7.26112 46.1252L7.2608 46.1255C7.24322 46.1387 7.20855 46.1647 7.17818 46.1865L7.17382 46.1909L7.16945 46.1952C7.16694 46.1977 7.16587 46.1988 7.16459 46.1993C7.16364 46.1996 7.16257 46.1996 7.16072 46.1996L7.15635 46.204C7.15635 46.2067 7.15468 46.2077 7.15237 46.2092C7.15095 46.21 7.14928 46.2111 7.14761 46.2127C7.13888 46.2171 7.13451 46.2215 7.13015 46.2259C7.13015 46.2259 7.12578 46.2259 7.12578 46.2303C7.12578 46.2303 7.12463 46.2303 7.12352 46.2308C7.12245 46.2314 7.12141 46.2325 7.12141 46.2346C7.11974 46.2363 7.11807 46.2373 7.11665 46.2382C7.11435 46.2396 7.11268 46.2407 7.11268 46.2434C7.11117 46.2449 7.10966 46.2459 7.10816 46.2467C7.10748 46.2471 7.1068 46.2474 7.10612 46.2478C7.10394 46.2489 7.10176 46.25 7.09958 46.2521C7.09706 46.2547 7.096 46.2557 7.09471 46.2562C7.09376 46.2565 7.0927 46.2565 7.09084 46.2565C7.08648 46.2609 7.08647 46.2609 7.08211 46.2609L7.07774 46.2653C7.06265 46.2761 7.0465 46.288 7.03033 46.2998L7.0297 46.3003C7.01333 46.3123 6.99695 46.3244 6.98167 46.3353C6.81572 46.4623 6.6454 46.5805 6.47072 46.6899C6.16065 46.8826 5.83749 47.0445 5.50559 47.189C5.50122 47.1934 5.49686 47.1934 5.49686 47.1934C5.18299 47.3236 4.86409 47.4437 4.54432 47.5641L4.54385 47.5643C4.34767 47.6382 4.15116 47.7122 3.95528 47.7888L4.78939 49.1678C4.8756 49.1354 4.96203 49.1032 5.04853 49.071C5.34763 48.9596 5.64759 48.8479 5.9423 48.7256L6.02989 48.6878L6.02994 48.6877C6.38491 48.5344 6.73846 48.3816 7.07337 48.1915C7.08211 48.1872 7.08648 48.1872 7.09084 48.1828C7.41531 47.9981 7.7067 47.7765 8.0021 47.5519L8.08217 47.4911L8.08654 47.4867C8.0882 47.485 8.08987 47.484 8.0913 47.4831C8.0936 47.4817 8.09527 47.4807 8.09527 47.4779L8.10837 47.4648L8.11711 47.4604C8.12147 47.4561 8.12584 47.4517 8.13458 47.4473L8.18698 47.4079L8.21228 47.3895L8.21232 47.3895C8.25074 47.3617 8.28726 47.3352 8.32673 47.3028C8.34083 47.2927 8.35494 47.2825 8.36908 47.2723L8.38867 47.258C8.4601 47.2061 8.53272 47.1533 8.61059 47.1058C8.76343 47.0008 8.92938 46.9044 9.0997 46.8213C9.25255 46.7644 9.40976 46.725 9.57135 46.6987H9.57571C9.93056 46.6631 10.2912 46.6651 10.6505 46.6671H10.6507H10.6509C10.7336 46.6676 10.8164 46.668 10.8989 46.668C11.3575 46.6768 11.8204 46.6899 12.2746 46.7468H12.2789C12.8423 46.8344 13.3794 46.9964 13.9079 47.2153C14.2878 47.386 14.659 47.5743 15.0258 47.7625L15.075 47.7882C15.1429 47.8237 15.2105 47.8592 15.278 47.8947L15.2783 47.8948C15.6021 48.0648 15.9226 48.233 16.2486 48.3929C15.4728 48.481 14.6908 48.4122 13.9129 48.3438L13.9121 48.3438C13.762 48.3306 13.6121 48.3174 13.4624 48.3054C13.3532 48.2966 13.2441 48.2879 13.1393 48.2835C12.3226 48.2309 11.4972 48.2397 10.685 48.3448C10.5059 48.3666 10.3225 48.3973 10.1478 48.4279C9.32242 48.5724 8.53198 48.8001 7.76774 49.159C7.40964 49.3254 7.06464 49.5224 6.73711 49.7544C6.49255 49.9208 6.2611 50.1003 6.04274 50.2973C5.9423 50.3848 5.84622 50.4768 5.75015 50.5687C6.06458 51.0065 6.38774 51.4355 6.72401 51.8602C6.80698 51.7683 6.89432 51.6807 6.98603 51.5975C6.98908 51.5914 6.99424 51.5874 6.99857 51.5841C7.00045 51.5827 7.00218 51.5813 7.0035 51.58C7.11268 51.4793 7.22185 51.3874 7.3354 51.2954L7.33977 51.2911C7.34181 51.2911 7.3429 51.2901 7.34348 51.2891C7.34413 51.2879 7.34413 51.2867 7.34413 51.2867L7.35723 51.2736V51.2779C7.35723 51.2736 7.3616 51.2736 7.3616 51.2736L7.37034 51.2648C7.37166 51.2635 7.37338 51.2621 7.37526 51.2607C7.37959 51.2574 7.38476 51.2534 7.3878 51.2473C7.393 51.2434 7.3982 51.2399 7.40317 51.2365L7.40321 51.2365C7.41492 51.2285 7.42535 51.2215 7.43147 51.2123C7.46641 51.186 7.49698 51.1641 7.53192 51.1422C7.57486 51.1111 7.6178 51.0826 7.66003 51.0546L7.66021 51.0545C7.69523 51.0313 7.72975 51.0084 7.76337 50.9846C8.06907 50.7876 8.3835 50.6213 8.70666 50.4768C8.73723 50.4636 8.7678 50.4505 8.79837 50.4418C9.25692 50.2579 9.73729 50.1222 10.2177 50.0259C10.4011 49.9865 10.5889 49.9514 10.7723 49.9296C10.7854 49.9252 10.7985 49.9252 10.8072 49.9252C11.6064 49.8332 12.4012 49.8376 13.2048 49.8858C13.3035 49.8921 13.4032 49.8994 13.5035 49.9068C13.6117 49.9147 13.7205 49.9227 13.8293 49.9296C14.9472 50.0302 16.0783 50.1134 17.1832 49.8289C17.6767 49.7019 18.1265 49.4961 18.5413 49.2247C18.5763 49.2335 18.6068 49.2378 18.6461 49.2422C19.6375 49.413 20.6288 49.3911 21.6114 49.1678C22.118 49.0496 22.6115 48.8701 23.0831 48.6425L22.8429 50.3673V50.3717C22.8364 50.3761 22.8287 50.3827 22.8211 50.3892C22.8134 50.3958 22.8058 50.4024 22.7992 50.4067L22.6944 50.4855C22.5154 50.6125 22.3232 50.7219 22.1267 50.8095C21.7948 50.9365 21.4542 51.0196 21.1048 51.0765C21.0437 51.0853 20.9869 51.0897 20.9301 51.0941C20.4803 51.1378 20.0261 51.151 19.5763 51.1554L17.7771 51.1948L17.4492 51.2L17.4487 51.2C16.4787 51.2153 15.506 51.2307 14.5367 51.2779C12.4798 51.3742 10.3749 51.6501 8.52325 52.6176C8.26122 52.7533 7.9992 52.9109 7.7459 53.0772C8.10401 53.4844 8.47084 53.8828 8.84641 54.2724C9.16521 54.0754 9.4971 53.9003 9.83774 53.7514C10.2351 53.5894 10.6413 53.4581 11.0518 53.3487C11.5933 53.2042 12.1436 53.1035 12.6982 53.0247V53.0291C12.4798 53.3268 12.2702 53.6288 12.0999 53.9528C11.9601 54.2199 11.851 54.4957 11.7593 54.7802C11.685 54.9991 11.6239 55.218 11.5671 55.4457L11.5603 55.4741C11.4752 55.8282 11.3892 56.1859 11.2701 56.527C11.6894 56.8816 12.1174 57.2187 12.5497 57.5514C12.5803 57.4901 12.6108 57.4244 12.6414 57.3588C12.6501 57.3369 12.6632 57.3062 12.6763 57.2756C12.8441 56.8793 12.9502 56.4636 13.0564 56.0476C13.1519 55.6732 13.2475 55.2986 13.3882 54.9378C13.5017 54.697 13.6371 54.4694 13.7856 54.2505C13.8948 54.0798 14.017 53.9134 14.1393 53.7514C14.3489 53.4581 14.5455 53.1692 14.7114 52.8583C15.494 52.8213 16.2789 52.8104 17.0628 52.7995L17.0636 52.7994C17.3905 52.7949 17.7172 52.7904 18.0435 52.7839C18.2818 52.7797 18.5211 52.7781 18.7607 52.7764H18.761H18.7611C19.5272 52.771 20.2974 52.7655 21.0524 52.6788C21.5765 52.6219 22.0961 52.5344 22.5896 52.3374C23.0656 52.1447 23.4805 51.904 23.8823 51.58C24.2666 51.2692 24.5985 50.8883 24.8692 50.468V50.4636C25.0439 50.1878 25.188 49.8945 25.3016 49.5924L26.4545 47.2591L25.4719 51.3567C25.3409 51.5931 25.2011 51.8208 25.0439 52.0441C25.0265 52.0645 25.0129 52.0849 24.9993 52.1053C24.9925 52.1156 24.9857 52.1258 24.9784 52.136C24.9653 52.1491 24.9609 52.1579 24.9609 52.1579V52.1623H24.9566V52.1666C24.9347 52.1929 24.9042 52.2236 24.878 52.2498C24.795 52.3418 24.712 52.4337 24.6203 52.5169C24.6188 52.52 24.6167 52.5225 24.6144 52.5247C24.6122 52.5268 24.6099 52.5286 24.6078 52.5303C24.6059 52.5317 24.6042 52.5331 24.6028 52.5344L24.5679 52.5694C24.5643 52.5721 24.5608 52.5751 24.5575 52.5781C24.5544 52.5808 24.5515 52.5836 24.5486 52.5863C24.5393 52.5951 24.5304 52.6035 24.5199 52.6088L24.5155 52.6132C24.4872 52.6307 24.4588 52.6493 24.4304 52.6678L24.4303 52.6679L24.4302 52.668C24.4019 52.6866 24.3735 52.7051 24.3452 52.7226C24.2578 52.7752 24.1661 52.8233 24.0744 52.8627L24.0701 52.8671C23.8037 52.9678 23.5242 53.0378 23.2403 53.0816C22.9172 53.1166 22.594 53.1298 22.2708 53.1298C22.0672 53.1338 21.8635 53.1323 21.6602 53.1307H21.6602H21.6601C21.4233 53.1289 21.187 53.1271 20.952 53.1341C20.5284 53.1341 20.1004 53.1648 19.6811 53.2173C19.5933 53.2289 19.505 53.2401 19.4163 53.2513L19.4145 53.2515C18.9349 53.3122 18.4456 53.3741 17.978 53.5106C17.6024 53.6201 17.2399 53.7864 16.9299 54.0316C16.8338 54.1104 16.7377 54.1892 16.6548 54.2855C16.3673 54.5926 16.1356 54.9522 15.9085 55.3047C15.8733 55.3592 15.8383 55.4136 15.8032 55.4675C15.3184 56.1987 14.8599 56.9473 14.4363 57.7134C14.3359 57.8884 14.2399 58.0634 14.1439 58.2384L14.1437 58.2387C14.0825 58.3438 14.0258 58.4532 13.969 58.5627C14.4101 58.8604 14.8599 59.1449 15.3141 59.4208C15.8075 58.497 16.336 57.5952 16.8993 56.7065C17.0008 56.5436 17.1062 56.3827 17.2103 56.2238C17.263 56.1434 17.3153 56.0635 17.3666 55.9841C17.4452 55.8615 17.5238 55.7434 17.6068 55.6295C17.6155 55.6164 17.6253 55.6033 17.6352 55.5901L17.6352 55.5901C17.645 55.577 17.6548 55.5638 17.6636 55.5507V55.5595C17.6767 55.5463 17.6952 55.5223 17.7138 55.4982L17.7138 55.4981C17.7324 55.4741 17.7509 55.45 17.764 55.4369C17.8033 55.3931 17.847 55.3493 17.8906 55.3056C17.8938 55.3024 17.8993 55.2986 17.9056 55.2943C17.9167 55.2867 17.9303 55.2773 17.9387 55.2662C18.0173 55.2093 18.1003 55.1655 18.1876 55.1261C18.192 55.1217 18.192 55.1217 18.1963 55.1217C18.5763 54.986 18.9824 54.9159 19.3842 54.8546C19.3885 54.8546 19.3918 54.8536 19.3951 54.8525C19.3984 54.8514 19.4016 54.8503 19.406 54.8503C20.1834 54.7496 20.9563 54.7233 21.738 54.7277C21.7992 54.7321 21.8603 54.7321 21.9215 54.7321C21.9084 54.7934 21.8909 54.8503 21.8691 54.9072C21.8603 54.9334 21.8516 54.9641 21.8428 54.9904C21.8428 54.9921 21.8421 54.9932 21.8413 54.9938C21.84 54.9947 21.8385 54.9947 21.8385 54.9947C21.7861 55.1042 21.7293 55.2136 21.6638 55.3143C21.642 55.3493 21.6245 55.3756 21.5983 55.4106C21.5878 55.4291 21.5756 55.4476 21.5629 55.4671C21.5576 55.475 21.5523 55.4831 21.547 55.4915C21.5437 55.4965 21.5404 55.5017 21.5372 55.507C21.5324 55.5133 21.5265 55.5203 21.5202 55.5276L21.5202 55.5276C21.5093 55.5404 21.4974 55.5543 21.4891 55.5682C21.4804 55.5814 21.4716 55.5945 21.4585 55.6033C21.2446 55.8572 21.0175 56.0848 20.7729 56.3125C20.2882 56.7721 19.8078 57.2406 19.3667 57.744C18.6243 58.5846 17.9736 59.5171 17.5325 60.5502C17.5238 60.5721 17.5151 60.594 17.502 60.6159C17.978 60.8436 18.4584 61.0668 18.9431 61.2726H18.9475C18.95 61.2661 18.9526 61.2589 18.9553 61.2514C18.9617 61.2334 18.9688 61.2136 18.978 61.1982C19.1047 60.9049 19.2532 60.6247 19.4147 60.3445C19.5239 60.1606 19.6375 59.9811 19.7598 59.8016C19.812 59.7246 19.8664 59.6498 19.9214 59.5741L19.9215 59.574L19.9216 59.5738C19.9448 59.542 19.968 59.51 19.9912 59.4777C19.9956 59.4733 20.0086 59.4559 20.0217 59.4384L20.0218 59.4383C20.0261 59.4383 20.0261 59.4339 20.0261 59.4339C20.0322 59.4308 20.0362 59.4257 20.0395 59.4213C20.0403 59.4203 20.0411 59.4193 20.0418 59.4184C20.0424 59.4176 20.043 59.417 20.0436 59.4164C20.048 59.4076 20.048 59.4076 20.0523 59.4032L20.0567 59.3989C20.0589 59.3945 20.0611 59.3923 20.0627 59.3907C20.0644 59.389 20.0654 59.3879 20.0654 59.3857H20.0698C20.0698 59.3857 20.0698 59.3843 20.0707 59.383C20.0713 59.3821 20.0723 59.3814 20.0742 59.3814L20.0785 59.377C20.0802 59.3753 20.0813 59.3736 20.0819 59.3722C20.0829 59.3699 20.0829 59.3682 20.0829 59.3682C20.096 59.3529 20.108 59.3376 20.12 59.3223L20.1201 59.3222C20.1321 59.3069 20.1441 59.2916 20.1572 59.2763C20.3318 59.0618 20.5153 58.8473 20.7074 58.6415C20.7159 58.633 20.7243 58.6232 20.7331 58.6131L20.7331 58.6131C20.7469 58.5971 20.7612 58.5805 20.7773 58.5671C21.1293 58.188 21.4987 57.835 21.8724 57.4778L21.8725 57.4777L21.8778 57.4726L21.8779 57.4725L21.8779 57.4725C22.0875 57.2712 22.2971 57.0698 22.4892 56.8509C22.6988 56.6145 22.8953 56.3694 23.0569 56.1023C23.2359 55.8134 23.3801 55.4851 23.4674 55.1567C23.4674 55.148 23.4718 55.1392 23.4761 55.1304C23.5154 54.9685 23.5416 54.8065 23.5504 54.6445C23.6901 54.627 23.8299 54.6007 23.9653 54.5701C24.4413 54.465 24.8998 54.2768 25.3016 54.0053L27.2144 53.2436L27.4065 53.7777L27.5375 54.1454V54.1498L27.9087 55.1874V55.2487C27.9131 55.3756 27.9131 55.5026 27.9131 55.6295C27.9131 55.7212 27.9142 55.8134 27.9153 55.9059C27.9185 56.1844 27.9219 56.4654 27.8956 56.7415C27.8782 56.8378 27.852 56.9341 27.8214 57.0304C27.8069 57.0595 27.7924 57.0855 27.7755 57.116L27.7646 57.1355C27.7515 57.1574 27.7384 57.1793 27.7209 57.2012H27.7166C27.7149 57.2045 27.7139 57.2072 27.713 57.2095L27.713 57.2095C27.7123 57.2114 27.7116 57.2131 27.7108 57.2146C27.7101 57.216 27.7092 57.2174 27.7078 57.2187C27.6773 57.2581 27.6423 57.2887 27.6554 57.2668L27.6118 57.3106C27.6037 57.3187 27.596 57.3267 27.5885 57.3347C27.5816 57.342 27.5748 57.3493 27.5681 57.3566C27.5539 57.3719 27.5397 57.3872 27.5244 57.4026L27.472 57.4551C27.4109 57.4901 27.389 57.5076 27.3847 57.5164C27.3855 57.5164 27.3864 57.5162 27.3873 57.5159C27.3879 57.5157 27.3885 57.5155 27.3891 57.5152C27.392 57.5139 27.3949 57.512 27.3978 57.512C27.341 57.5514 27.2842 57.5864 27.2231 57.6215C27.1227 57.6784 27.0222 57.7265 26.9218 57.7747H26.913C26.6135 57.894 26.3052 57.9911 25.9969 58.0882L25.9968 58.0882C25.649 58.1977 25.301 58.3073 24.9653 58.4489C24.4937 58.6503 24.0657 58.9129 23.6596 59.2194L23.6145 59.253C23.5583 59.2947 23.5006 59.3375 23.4456 59.3857C22.5241 60.1212 21.8341 61.115 21.3887 62.2095C21.8865 62.3802 22.3931 62.5378 22.9041 62.6823C22.9084 62.6779 22.9084 62.6735 22.9128 62.6691C23.0482 62.3583 23.2097 62.0606 23.3975 61.776L23.3977 61.7758L23.3978 61.7757C23.4501 61.7014 23.5024 61.6271 23.5547 61.5572C23.5653 61.5395 23.5788 61.5218 23.5904 61.5064L23.5984 61.4959C23.6028 61.4915 23.6071 61.4871 23.6071 61.4827C23.6159 61.4784 23.6203 61.4696 23.6246 61.4608C23.6334 61.4521 23.6377 61.4433 23.6377 61.4433L23.6377 61.4433C23.76 61.2988 23.8823 61.1544 24.0133 61.0274C24.1443 60.8917 24.2797 60.7648 24.4238 60.6422C24.4434 60.6247 24.4631 60.6083 24.4827 60.5918C24.5024 60.5754 24.5221 60.559 24.5417 60.5415C24.5461 60.5371 24.5504 60.5327 24.5548 60.5327C24.5592 60.5284 24.5635 60.524 24.5679 60.524L24.581 60.5108C24.6094 60.4911 24.6378 60.4703 24.6662 60.4496C24.6946 60.4288 24.7229 60.408 24.7513 60.3883C25.0308 60.2 25.3234 60.0293 25.6335 59.8892L25.6378 59.8848C25.9573 59.756 26.2906 59.6515 26.6254 59.5465L26.7471 59.5083C27.389 59.3069 28.0179 59.0793 28.5289 58.6459C28.6817 58.7247 28.8345 58.8035 28.9743 58.8998L28.9744 58.8998C28.9831 58.9042 28.9918 58.9086 29.0049 58.9173C29.0289 58.9348 29.0529 58.9512 29.0769 58.9676C29.1009 58.9841 29.125 59.0005 29.149 59.018C29.1883 59.053 29.2101 59.0705 29.2232 59.0749C29.2451 59.0924 29.2669 59.1143 29.2887 59.1362H29.2931C29.3542 59.1931 29.4154 59.25 29.4721 59.3069C29.5595 59.3945 29.6468 59.4864 29.7254 59.5827C29.7353 59.5959 29.7451 59.6066 29.755 59.6185C29.7582 59.6225 29.7615 59.6265 29.7647 59.6309C29.7953 59.6703 29.8259 59.7097 29.8521 59.7535C29.9482 59.8936 30.0355 60.0468 30.1141 60.1956C30.1447 60.2525 30.1709 60.3051 30.1927 60.3576C30.2631 60.5364 30.3255 60.7171 30.3877 60.8972L30.3877 60.8973C30.4916 61.198 30.595 61.4974 30.7342 61.7848L30.8521 62.0081H30.839C30.8783 62.0781 30.922 62.1481 30.9656 62.2181L30.9657 62.2182C30.954 62.2299 30.9423 62.242 30.9305 62.254L30.9298 62.2547C30.8935 62.292 30.8566 62.3298 30.8172 62.3627C30.6862 62.4809 30.5552 62.5947 30.4198 62.7085C30.4067 62.7173 30.3761 62.7392 30.3543 62.7611C30.3509 62.7627 30.3482 62.7644 30.3459 62.7658L30.3446 62.7666C30.3416 62.7685 30.3392 62.7698 30.3368 62.7698C30.2713 62.8224 30.2058 62.8705 30.1359 62.9187C29.6556 63.2645 29.149 63.571 28.6424 63.8687C29.5376 63.9475 30.4373 63.9912 31.35 64C31.5727 63.8293 31.7867 63.6454 31.9876 63.4528C32.1885 63.6454 32.4068 63.8293 32.6252 64C33.5379 63.9912 34.4375 63.9475 35.3328 63.8687C34.8218 63.571 34.3152 63.2645 33.8392 62.9187C33.8199 62.9045 33.8002 62.8903 33.7803 62.8759C33.7329 62.8417 33.6845 62.8069 33.6383 62.7698C33.634 62.7698 33.6296 62.7654 33.6209 62.7611C33.599 62.7436 33.5685 62.7173 33.5554 62.7085C33.4201 62.5992 33.2892 62.4811 33.1583 62.363L33.158 62.3627C33.1318 62.3386 33.1067 62.3134 33.0821 62.2888C33.0575 62.2642 33.0335 62.2401 33.0095 62.2182L33.0381 62.1728C33.072 62.1191 33.1054 62.0662 33.1361 62.0081L33.254 61.7848C33.393 61.4981 33.4979 61.1977 33.6028 60.8975L33.6029 60.8973C33.6661 60.7163 33.7293 60.5354 33.7999 60.3576C33.896 60.1431 34.0095 59.9417 34.1362 59.7535L34.1572 59.7232C34.1794 59.6911 34.2002 59.661 34.2235 59.6309C34.2301 59.6221 34.2366 59.6145 34.2432 59.6068C34.2497 59.5991 34.2563 59.5915 34.2628 59.5827C34.3414 59.4864 34.4244 59.3945 34.5161 59.3069C34.5727 59.2532 34.6312 59.2016 34.6891 59.1506C34.7161 59.1267 34.743 59.103 34.7694 59.0793C34.7781 59.0749 34.8 59.0574 34.8393 59.0224C34.8751 58.9962 34.9109 58.9726 34.9486 58.9477L34.9878 58.9217C35.1406 58.821 35.2978 58.7291 35.4638 58.6502C36.0238 59.1267 36.7327 59.3507 37.4365 59.5731C37.7481 59.6715 38.0586 59.7696 38.3548 59.8892C38.356 59.8892 38.3569 59.8892 38.3575 59.8893C38.358 59.8894 38.3584 59.8895 38.3586 59.8897C38.3592 59.8903 38.3592 59.8914 38.3592 59.8935V59.8936C38.6692 60.0337 38.9618 60.2044 39.2413 60.3926C39.2697 60.4123 39.2981 60.4331 39.3264 60.4539C39.3548 60.4747 39.3832 60.4955 39.4116 60.5152L39.4247 60.5284C39.4291 60.5327 39.4335 60.5327 39.4378 60.5371L39.4378 60.5371C39.4422 60.5415 39.4466 60.5459 39.4509 60.5459C39.4835 60.5749 39.5162 60.601 39.5513 60.629L39.5732 60.6466C39.7173 60.7691 39.8483 60.8917 39.9837 61.0318C40.1147 61.1631 40.237 61.3032 40.3549 61.4477L40.3724 61.4652C40.3767 61.474 40.3811 61.4827 40.3898 61.4871C40.3898 61.4883 40.3901 61.4891 40.3906 61.4898C40.391 61.4904 40.3915 61.491 40.392 61.4915C40.3931 61.4926 40.3942 61.4937 40.3942 61.4959L40.3986 61.5002C40.4022 61.5051 40.4061 61.5099 40.4102 61.5149C40.421 61.528 40.4328 61.5425 40.4423 61.5615C40.4947 61.6316 40.5471 61.706 40.5995 61.7804C40.7829 62.065 40.9488 62.3627 41.0842 62.6735C41.0842 62.6779 41.0886 62.6823 41.0929 62.6866C41.5995 62.5422 42.1061 62.3802 42.6083 62.2138C42.1629 61.1237 41.4729 60.13 40.5514 59.3901C40.0798 59.0136 39.5863 58.6897 39.0317 58.4532C38.6894 58.3065 38.3356 58.1956 37.9813 58.0846L37.9813 58.0846C37.6803 57.9902 37.3789 57.8957 37.084 57.7791H37.0752L37.0332 57.759C36.9459 57.7174 36.8566 57.6748 36.7739 57.6258C36.715 57.5921 36.656 57.5583 36.6049 57.5206L36.608 57.5208C36.5992 57.5076 36.573 57.4901 36.525 57.4639C36.4875 57.4313 36.4529 57.3958 36.4186 57.3608C36.3931 57.3346 36.3677 57.3087 36.3416 57.2844C36.3416 57.2931 36.311 57.2668 36.2848 57.2274C36.2826 57.2253 36.2805 57.2231 36.2788 57.2204C36.2772 57.2177 36.2761 57.2144 36.2761 57.2099H36.2717C36.2542 57.188 36.2411 57.1662 36.228 57.1443C36.2193 57.1269 36.2096 57.1094 36.1998 57.092L36.1996 57.0917L36.1995 57.0914C36.1897 57.074 36.1799 57.0566 36.1712 57.0392C36.1363 56.9429 36.1145 56.8466 36.097 56.7503C36.0708 56.4742 36.0741 56.1932 36.0774 55.9146C36.0785 55.8222 36.0795 55.7299 36.0795 55.6383C36.0839 55.4939 36.0839 55.3452 36.0839 55.2009V55.2005L37.1276 52.2848L37.3416 52.53V52.5344C37.5381 52.8496 37.7609 53.156 38.0054 53.4318C38.5382 54.0229 39.2588 54.4125 40.0317 54.5832C40.1671 54.6139 40.3069 54.6401 40.4466 54.6576C40.4554 54.8152 40.4816 54.9772 40.5209 55.1436C40.6038 55.4807 40.7523 55.8178 40.9357 56.1155C41.2545 56.6321 41.6781 57.0698 42.1192 57.4857C42.521 57.8666 42.9184 58.2475 43.2896 58.6546C43.4774 58.8648 43.6608 59.0749 43.8355 59.2894C43.8617 59.3201 43.8879 59.3507 43.9053 59.3814C43.9075 59.3814 43.9086 59.3824 43.9091 59.3839C43.9097 59.3856 43.9097 59.3878 43.9097 59.3901C43.9141 59.3945 43.9141 59.3945 43.9185 59.3945C43.9185 59.3945 43.9185 59.3989 43.9228 59.3989L43.9359 59.412L43.9403 59.4164C43.9415 59.4175 43.9426 59.4184 43.9437 59.4192C43.9456 59.4206 43.9472 59.4218 43.9482 59.4242C43.9487 59.4255 43.949 59.4272 43.949 59.4295C43.9516 59.4346 43.9541 59.4382 43.9567 59.4412C43.9585 59.4434 43.9603 59.4452 43.9621 59.447L43.9665 59.4514L43.9773 59.4658C43.9862 59.4777 43.9939 59.4876 43.9971 59.4908C44.0757 59.6003 44.1499 59.7053 44.2241 59.8148C44.5255 60.2525 44.7919 60.7166 45.0059 61.2069C45.0124 61.2179 45.0168 61.231 45.0211 61.2441L45.0211 61.2441C45.0255 61.2573 45.0299 61.2704 45.0364 61.2813H45.0408C45.5168 61.08 45.9884 60.8611 46.4557 60.6378C46.462 60.6347 46.4683 60.6315 46.4762 60.6283C46.4793 60.6271 46.4826 60.6259 46.4863 60.6247C46.0409 59.5652 45.3771 58.6109 44.6216 57.7484C44.1805 57.245 43.7001 56.7765 43.2154 56.3169C42.9752 56.0892 42.7437 55.8616 42.5297 55.6076C42.5239 55.5989 42.5181 55.5921 42.511 55.5847C42.5074 55.5809 42.5036 55.577 42.4992 55.5727L42.4992 55.5726C42.4929 55.5622 42.4847 55.5518 42.4769 55.5419C42.4683 55.5309 42.4601 55.5205 42.4555 55.5113C42.4118 55.45 42.3681 55.3844 42.3288 55.3187C42.2633 55.218 42.2066 55.1042 42.1542 54.9991C42.1542 54.9947 42.1498 54.9947 42.1498 54.9947C42.1192 54.9116 42.093 54.824 42.0712 54.7364C42.1279 54.7364 42.1891 54.7364 42.2546 54.7321C43.0363 54.7277 43.8093 54.754 44.5866 54.8546C44.5882 54.8546 44.5896 54.8548 44.5909 54.855C44.5917 54.8552 44.5925 54.8553 44.5933 54.8555C44.5982 54.8568 44.6022 54.859 44.6085 54.859C45.0059 54.9159 45.4164 54.986 45.7963 55.1261L45.8007 55.1304C45.888 55.1698 45.971 55.2136 46.0496 55.2705C46.0671 55.2881 46.0933 55.3056 46.102 55.3099C46.15 55.3493 46.1893 55.3931 46.2286 55.4413C46.2465 55.4592 46.2766 55.4975 46.3008 55.5284C46.3121 55.5428 46.3221 55.5555 46.3291 55.5639C46.3378 55.5748 46.3466 55.5869 46.3553 55.5989C46.3587 55.6036 46.3621 55.6082 46.3655 55.6128C46.3708 55.6201 46.3761 55.6272 46.3815 55.6339C46.4345 55.7107 46.4876 55.7896 46.542 55.8704C46.5682 55.9093 46.5947 55.9487 46.6217 55.9885C47.3554 57.1005 48.0366 58.2387 48.6655 59.4076C49.1196 59.1318 49.5738 58.8429 50.0105 58.5452L49.9008 58.3452C49.7974 58.1565 49.6934 57.9666 49.5869 57.7791C49.1371 56.9867 48.6611 56.2074 48.1676 55.4457L48.0867 55.3192C47.8596 54.964 47.6266 54.5994 47.3379 54.2943C46.9798 53.909 46.5081 53.6682 46.0147 53.5194C45.5344 53.3776 45.029 53.3159 44.5355 53.2557L44.508 53.2523C44.032 53.1911 43.5473 53.156 43.0669 53.1429C42.8108 53.1371 42.5538 53.139 42.2965 53.141H42.2963H42.2962C41.7812 53.1448 41.2648 53.1487 40.7523 53.0904C40.4685 53.0466 40.1933 52.9765 39.9226 52.8759L39.9182 52.8715C39.8265 52.8321 39.7348 52.7839 39.6474 52.7314C39.619 52.7139 39.5907 52.6953 39.5623 52.6766C39.5339 52.658 39.5055 52.6394 39.4771 52.6219L39.4728 52.6176C39.4553 52.6044 39.4378 52.5913 39.4247 52.5782C39.3155 52.4818 39.2107 52.3768 39.1103 52.2629C39.0885 52.2367 39.0579 52.2061 39.0317 52.1798L39.0317 52.1798V52.1754V52.171C39.0291 52.171 39.0265 52.1679 39.0221 52.1627L39.022 52.1626C39.019 52.159 39.0151 52.1544 39.0099 52.1491L38.9443 52.0572C38.7915 51.8383 38.6474 51.6063 38.5164 51.3699L37.5294 47.2722L38.6867 49.6056C38.8002 49.9077 38.9443 50.201 39.119 50.4768L39.1234 50.4812C39.3898 50.9014 39.7217 51.2823 40.106 51.5931C40.5121 51.9171 40.9226 52.1579 41.3986 52.3505C41.8921 52.5475 42.4118 52.6351 42.9359 52.692C43.6941 52.7787 44.4651 52.7841 45.2313 52.7895H45.2315H45.2317C45.4715 52.7912 45.7108 52.7929 45.9491 52.7971C46.2663 52.8033 46.5837 52.8081 46.9014 52.813L46.9024 52.813C47.6954 52.825 48.4894 52.8371 49.2812 52.8715C49.4472 53.1823 49.6437 53.4712 49.8533 53.7646L49.8759 53.7959L49.876 53.7959C50.1435 54.1661 50.4091 54.5337 50.6045 54.951C50.7403 55.3045 50.8337 55.6712 50.9272 56.0381C51.0352 56.4616 51.1431 56.8852 51.3163 57.2887C51.3512 57.3763 51.3862 57.4595 51.4298 57.5427C51.8665 57.2099 52.2945 56.8685 52.7138 56.5182C52.6005 56.1979 52.521 55.8701 52.4405 55.5382L52.4212 55.4588C52.2901 54.9466 52.1373 54.4387 51.8884 53.9659C51.7181 53.642 51.5041 53.3399 51.2901 53.0422V53.0378C52.2683 53.1735 53.2334 53.3924 54.1505 53.7689C54.4824 53.9178 54.81 54.0841 55.12 54.2768C55.5 53.8871 55.8624 53.4888 56.2205 53.0772C55.976 52.9153 55.7183 52.7664 55.465 52.6351C53.6134 51.6676 51.5084 51.3961 49.4515 51.2954C48.6176 51.255 47.7863 51.2405 46.9536 51.226C46.7048 51.2216 46.4559 51.2173 46.2068 51.2123L44.4119 51.1729L44.4096 51.1728C43.8994 51.1641 43.3849 51.1553 42.8791 51.0941C42.5297 51.0371 42.1891 50.954 41.8572 50.827C41.6607 50.7395 41.4685 50.63 41.2851 50.5031C41.2618 50.4885 41.2385 50.47 41.2153 50.4515C41.2078 50.4456 41.2002 50.4396 41.1927 50.4338C41.1886 50.4306 41.1844 50.4274 41.1803 50.4242C41.1672 50.4155 41.1497 50.4024 41.1366 50.3892V50.3848L40.8964 48.66C41.3637 48.8876 41.8616 49.0671 42.3681 49.1853C43.3464 49.4086 44.3421 49.4305 45.329 49.2597C45.364 49.251 45.3989 49.2466 45.4338 49.2422C45.8531 49.518 46.3029 49.7238 46.7964 49.8464C47.9012 50.1309 49.0323 50.0434 50.1503 49.9471C51.1591 49.8595 52.1679 49.8245 53.1723 49.9383C53.1854 49.9427 53.1941 49.9427 53.2072 49.9427C53.9147 50.0434 54.6134 50.2185 55.2772 50.4899C55.6048 50.6344 55.9192 50.8007 56.2249 50.9977L56.272 51.0291C56.3336 51.0701 56.3936 51.1099 56.4563 51.1554C56.4913 51.1772 56.5219 51.1991 56.5568 51.2254C56.5655 51.2342 56.583 51.2473 56.6005 51.2604C56.6092 51.2692 56.6136 51.2736 56.6223 51.2779L56.631 51.2867H56.6354C56.6398 51.2954 56.6441 51.2954 56.6485 51.2998C56.6507 51.2998 56.6518 51.3009 56.6529 51.302C56.654 51.3031 56.655 51.3042 56.6572 51.3042C56.6588 51.3042 56.6598 51.3048 56.6605 51.3055C56.6616 51.3068 56.6616 51.3086 56.6616 51.3086L56.7226 51.3597L56.7227 51.3598C56.8126 51.4349 56.9038 51.5111 56.9891 51.5931C57.0765 51.6763 57.1638 51.7639 57.2468 51.8514C57.5787 51.4312 57.9062 51.0021 58.2163 50.5643C57.6398 49.9952 56.9542 49.518 56.2205 49.1766C55.286 48.7431 54.3165 48.4936 53.2989 48.3666C52.3731 48.2441 51.4429 48.2528 50.5171 48.3273C50.3675 48.3393 50.2176 48.3525 50.0675 48.3657L50.0666 48.3657C49.2887 48.4341 48.5068 48.5029 47.7309 48.4148C48.0262 48.2693 48.3184 48.1156 48.6108 47.9619L48.611 47.9617C49.0925 47.7085 49.5745 47.4551 50.0717 47.2372C50.6001 47.0183 51.1372 46.8563 51.7006 46.7687H51.705C52.1591 46.7118 52.622 46.6943 53.0806 46.6899L53.2427 46.688C53.628 46.6832 54.021 46.6784 54.4038 46.7206H54.4082C54.5654 46.7468 54.7226 46.7862 54.8798 46.8432C55.0501 46.922 55.2161 47.0183 55.3689 47.1277C55.4278 47.1653 55.485 47.2061 55.5426 47.2472L55.5427 47.2473C55.5791 47.2732 55.6156 47.2993 55.6528 47.3247L55.6529 47.3248C55.6966 47.3598 55.7402 47.3948 55.7882 47.4298L55.8406 47.4692C55.845 47.4736 55.8537 47.4779 55.8581 47.4823L55.8624 47.4867C55.8682 47.4896 55.8702 47.4925 55.8721 47.4955C55.8731 47.4969 55.8741 47.4984 55.8755 47.4998C55.8772 47.5015 55.8789 47.5025 55.8803 47.5034C55.8826 47.5048 55.8843 47.5059 55.8843 47.5086L55.8886 47.513L55.8887 47.513C56.2075 47.7582 56.5263 48.0033 56.88 48.2047C57.2468 48.4148 57.6398 48.5855 58.0285 48.7519C58.3649 48.8924 58.7124 49.0219 59.0574 49.1505L59.1508 49.1853C59.4391 48.73 59.7229 48.2703 59.9893 47.8019C59.8258 47.7397 59.6614 47.6789 59.4971 47.6182L59.4969 47.6181C59.1522 47.4906 58.8081 47.3633 58.4739 47.224C58.4725 47.224 58.471 47.2235 58.4696 47.2229C58.4688 47.2226 58.4681 47.2222 58.4674 47.2218C58.4652 47.2207 58.463 47.2197 58.4608 47.2197C58.1289 47.0708 57.8058 46.9088 57.4957 46.7206C57.321 46.6111 57.1507 46.4929 56.9848 46.366C56.9695 46.355 56.9543 46.343 56.939 46.331L56.9389 46.3309C56.9321 46.3256 56.9253 46.3202 56.9184 46.3149C56.91 46.3084 56.9015 46.302 56.8931 46.2959H56.8887C56.8887 46.2937 56.8887 46.2926 56.8881 46.2921C56.8876 46.2915 56.8865 46.2915 56.8843 46.2915L56.8816 46.2915C56.8796 46.2912 56.8788 46.2904 56.8756 46.2872C56.874 46.2855 56.8723 46.2845 56.8709 46.2839C56.8686 46.2828 56.8669 46.2828 56.8669 46.2828C56.8652 46.2811 56.8642 46.2794 56.8633 46.278C56.8619 46.2757 56.8608 46.274 56.8581 46.274C56.8569 46.2728 56.8557 46.272 56.8545 46.2713C56.8514 46.2693 56.8482 46.2685 56.845 46.2653L56.8449 46.2625C56.8447 46.2609 56.8437 46.2609 56.8407 46.2609C56.8407 46.2565 56.8406 46.2565 56.8363 46.2565C56.8319 46.2521 56.8232 46.2478 56.8188 46.2434C56.8188 46.239 56.8144 46.239 56.8101 46.2346L56.8057 46.2303C56.8035 46.2303 56.8024 46.2292 56.8013 46.2281C56.8003 46.227 56.7992 46.2259 56.797 46.2259C56.7951 46.224 56.7941 46.223 56.7931 46.2224C56.7918 46.2215 56.7908 46.2215 56.7882 46.2215L56.7839 46.2171C56.7768 46.212 56.7696 46.2064 56.7626 46.2008C56.7584 46.1974 56.7542 46.1939 56.7501 46.1906C56.7317 46.1754 56.7146 46.1613 56.7009 46.1558C56.6179 46.0902 56.5306 46.0245 56.4432 45.9588C56.0808 45.6874 55.7052 45.4729 55.2816 45.3109C54.8231 45.1402 54.3121 45.1139 53.823 45.1095C52.8404 45.0964 51.8491 45.1051 50.8883 45.3109C49.8194 45.5397 48.8575 46.0463 47.8951 46.5531C47.4028 46.8125 46.9103 47.0718 46.4033 47.2941C45.8793 47.513 45.3421 47.6749 44.7831 47.7581C44.2766 47.8194 43.77 47.815 43.259 47.7537C42.7743 47.6793 42.3026 47.5524 41.8441 47.3729C41.5384 47.2372 41.2458 47.0796 40.9619 46.9044C40.8091 46.8081 40.6562 46.7031 40.5078 46.598C40.4794 46.5783 40.4521 46.5564 40.4248 46.5345C40.3975 46.5126 40.3702 46.4907 40.3418 46.471C40.3353 46.4667 40.3309 46.4634 40.3265 46.4601C40.3222 46.4568 40.3178 46.4535 40.3112 46.4492L40.3025 46.4404L40.2812 46.4238L40.2809 46.4236C40.2501 46.3998 40.2217 46.3777 40.1933 46.3528L38.1801 43.7042C37.5163 42.8287 37.2106 41.7342 37.3154 40.6441C37.4595 39.1775 37.691 37.4001 37.7958 37.19C38.1495 36.4764 38.56 35.8066 39.0404 35.2068C39.7304 34.3356 40.5689 33.6176 41.534 33.1623C42.5079 32.7027 43.6739 32.4881 44.8967 32.3787C46.1238 32.2693 47.3859 32.243 48.6567 32.2299C48.8421 32.2273 49.028 32.225 49.2142 32.2228C50.309 32.2094 51.4175 32.1959 52.526 32.1248C53.1723 32.081 53.823 32.0241 54.4737 31.9322C55.1244 31.8402 55.7663 31.7089 56.3996 31.5469C57.0328 31.3849 57.6529 31.1748 58.2556 30.9252C58.8626 30.6801 59.4434 30.3824 59.9937 30.0409C61.1029 29.3624 62.0593 28.4474 62.7449 27.3748C61.9807 28.3423 60.9632 29.1259 59.8321 29.6644ZM32.0235 46.4624C32.0156 46.4577 32.006 46.4512 31.9963 46.4448L31.9919 46.4404M32.0284 46.4639C32.0218 46.458 32.0132 46.452 32.0026 46.446C32.0079 46.4505 32.0132 46.4538 32.018 46.4569C32.0218 46.4592 32.0253 46.4615 32.0284 46.4639ZM34.6035 57.3106C34.0707 57.5864 33.5816 57.9585 33.1885 58.4138C32.9047 58.7422 32.647 59.1055 32.4592 59.5039C32.3349 59.7745 32.2358 60.0556 32.1372 60.3355L32.1372 60.3356C32.0938 60.4588 32.0504 60.5817 32.005 60.7035C31.9617 60.5859 31.9206 60.468 31.8796 60.3502L31.8795 60.3501C31.78 60.0645 31.6807 59.7798 31.5509 59.5039C31.398 59.18 31.1971 58.8779 30.9744 58.5977C30.9417 58.556 30.9069 58.5163 30.8715 58.4758L30.8715 58.4758C30.855 58.4568 30.8383 58.4378 30.8216 58.4182C30.5814 58.1424 30.315 57.8973 30.0137 57.6871C29.8215 57.5514 29.6163 57.4244 29.4023 57.315L29.4066 57.3106V57.3062C29.494 56.9516 29.5114 56.5751 29.5114 56.2074V56.168C29.5093 55.9228 29.5082 55.6776 29.5071 55.4324C29.506 55.1873 29.5049 54.9422 29.5027 54.697H29.5114L29.6468 53.8871L29.7735 53.121L30.0355 51.5362C30.612 51.221 31.1229 51.9871 31.6076 52.7576L31.6351 52.8022C31.853 53.1552 32.0706 53.5078 32.2802 53.7514C32.8435 54.3993 33.385 54.303 33.9746 51.5362L34.4987 54.697H34.503C34.4987 55.2044 34.4987 55.7075 34.4987 56.2105V56.2118C34.4943 56.5795 34.5118 56.956 34.5991 57.3106C34.6035 57.3062 34.6035 57.3062 34.6035 57.3106Z" fill="#24A148"/>
</svg>
